<svg width="0" height="0" class="hidden">
  <symbol xmlns="http://www.w3.org/2000/svg" fill="currentColor" viewBox="0 0 24 24" id="arrow-right">
<path d="M13.1715 12.0007L8.22168 7.05093L9.6359 5.63672L15.9999 12.0007L9.6359 18.3646L8.22168 16.9504L13.1715 12.0007Z" fill="black"/>
  </symbol>
  <symbol xmlns="http://www.w3.org/2000/svg" fill="currentColor" viewBox="0 0 24 24" id="star-icon">
    <path d="M11.9998 17L6.12197 20.5902L7.72007 13.8906L2.48926 9.40983L9.35479 8.85942L11.9998 2.5L14.6449 8.85942L21.5104 9.40983L16.2796 13.8906L17.8777 20.5902L11.9998 17Z"></path>
  </symbol>
  <symbol xmlns="http://www.w3.org/2000/svg" fill="currentColor" viewBox="0 0 24 24" id="checkbox-fill">
    <path d="M4 3H20C20.5523 3 21 3.44772 21 4V20C21 20.5523 20.5523 21 20 21H4C3.44772 21 3 20.5523 3 20V4C3 3.44772 3.44772 3 4 3ZM11.0026 16L18.0737 8.92893L16.6595 7.51472L11.0026 13.1716L8.17421 10.3431L6.75999 11.7574L11.0026 16Z"></path>
  </symbol>
  <symbol fill="none" xmlns="http://www.w3.org/2000/svg" viewBox="0 0 24 24" id="checkbox-circle">
    <path d="M12 22C17.5228 22 22 17.5228 22 12C22 6.47715 17.5228 2 12 2C6.47715 2 2 6.47715 2 12C2 17.5228 6.47715 22 12 22ZM17.4571 9.45711L11 15.9142L6.79289 11.7071L8.20711 10.2929L11 13.0858L16.0429 8.04289L17.4571 9.45711Z" fill="#DAFC00"></path>
  </symbol>
  <symbol xmlns="http://www.w3.org/2000/svg" fill="currentColor" viewBox="0 0 24 24" id="gemini-star">
    <path d="M1 11C6.52285 11 11 6.52285 11 1H13C13 6.52285 17.4772 11 23 11V13C17.4772 13 13 17.4772 13 23H11C11 17.4772 6.52285 13 1 13V11Z"></path>
  </symbol>
</svg>